<?xml version="1.0" encoding="UTF-8" standalone="no"?>
<svg
   width="1072.7946"
   zoomAndPan="magnify"
   viewBox="0 0 804.59592 952.52261"
   height="1270.0302"
   preserveAspectRatio="xMidYMid"
   version="1.2"
   id="svg41"
   sodipodi:docname="FHU_COB.svg"
   xmlns:inkscape="http://www.inkscape.org/namespaces/inkscape"
   xmlns:sodipodi="http://sodipodi.sourceforge.net/DTD/sodipodi-0.dtd"
   xmlns="http://www.w3.org/2000/svg"
   xmlns:svg="http://www.w3.org/2000/svg">
  <sodipodi:namedview
     id="namedview41"
     pagecolor="#ffffff"
     bordercolor="#000000"
     borderopacity="0.25"
     inkscape:showpageshadow="2"
     inkscape:pageopacity="0.0"
     inkscape:pagecheckerboard="0"
     inkscape:deskcolor="#d1d1d1"
     inkscape:export-bgcolor="#ffffff00" />
  <defs
     id="defs1" />
  <circle
     style="fill:#661424;fill-opacity:1;stroke:#000000;stroke-width:13.1144;stroke-linecap:round;stroke-linejoin:round"
     id="path41"
     cx="402.29794"
     cy="550.22467"
     r="395.74075" />
  <g
     id="0babb5e244"
     transform="matrix(1.7775141,0,0,1.6513448,-351.93508,-29.730657)">
    <path
       style="display:inline;fill:#ffffff;fill-opacity:1;fill-rule:nonzero;stroke:none"
       d="m 433.94922,181.08594 h 6.125 v -7.10938 h -9.86719 c 5.73047,-2.36719 9.67578,-8.09765 9.67578,-14.61328 0,-6.51562 -1.3789,-7.10937 -3.55469,-9.86719 -0.20312,-0.39453 -0.59375,-0.59765 -0.78125,-0.78515 -0.20312,-0.20313 -0.59765,-0.59766 -0.78515,-0.78516 -1.37891,-1.37891 -2.96094,-2.36719 -4.9336,-3.16406 L 424.69141,18.003906 h -1.77344 l -5.13672,126.757814 c -1.76953,0.78515 -3.35156,1.77344 -4.93359,3.16406 -0.20313,0.20313 -0.59375,0.59375 -0.78516,0.78516 -0.20313,0.39062 -0.59375,0.59375 -0.78516,0.78515 -2.17578,2.75782 -3.55468,6.1211 -3.55468,9.86719 0,6.51563 3.94921,12.24609 9.67968,14.61328 h -9.86718 v 7.10938 h 6.12109 c 0,0 -9.67578,32.375 -34.75391,50.33984 l 26.45703,-8.28516 h 36.32032 l 26.45703,8.28516 c -24.875,-17.96484 -34.75391,-50.33984 -34.75391,-50.33984 h 0.59375 z m 0,0"
       id="path3" />
    <path
       style="display:inline;fill:#ffffff;fill-opacity:1;fill-rule:nonzero;stroke:none"
       d="M 524.375,574.57031 V 468.34766 c -0.39453,-22.90235 -13.23438,-26.66016 -13.23438,-26.66016 0,0 -18.95312,-9.67578 -18.5625,12.4375 V 574.55859 H 446.375 V 455.70703 c 0.39062,-24.27734 -25.07422,-24.08984 -25.07422,-24.08984 0,0 -26.45703,-1.37891 -26.06641,23.88672 v 119.05468 h -26.0625 V 400.41797 h 108.98438 l 67.91406,27.2539 v 36.72657 l 19.15625,-23.69532 5.52735,-19.34765 -99.11329,-43.03906 H 368.97266 l -4.9375,-8.49219 h 108.19921 c 0,0 80.16407,34.94531 80.16407,34.94531 -0.39453,-5.92187 -2.17578,-103.26172 -84.89453,-164.46094 l -21.32032,-6.71875 c 0,0 83.91016,49.5586 87.46485,147.28125 l -60.22266,-23.69531 c -0.78516,-17.57422 -4.33984,-52.51953 -18.16797,-87.07031 -0.98828,-2.57031 -1.97656,-5.13672 -3.16406,-7.70703 -4.54297,-10.26172 -10.26172,-20.53125 -16.98047,-30.00782 h -29.41406 l -25.85938,8.09375 c -54.10156,37.1211 -73.83593,101.08985 -81.14843,137.80469 -2.36719,12.2461 -4.54297,33.95703 -4.54297,33.95703 l -18.95313,8.49219 5.73047,21.12891 16.58594,19.54687 v 113.32031 h -51.73047 l 13.625,16.38672 h 327.15234 l 13.625,-16.38672 h -75.41797 l -0.39062,-0.20312 z m -171.37109,0 H 321.41406 V 473.875 c -0.20312,-22.11719 14.21875,-32.57813 14.21875,-32.57813 0,0 16.38281,-9.86718 17.3711,7.89454 z m 0,0"
       id="path5" />
  </g>
</svg>
