<svg xmlns="http://www.w3.org/2000/svg" xmlns:xlink="http://www.w3.org/1999/xlink" width="1080" zoomAndPan="magnify" viewBox="0 0 810 809.999993" height="1080" preserveAspectRatio="xMidYMid meet" version="1.2"><g id="3356855b5b"><rect x="0" width="810" y="0" height="809.999993" style="fill:#ffffff;fill-opacity:1;stroke:none;"/><rect x="0" width="810" y="0" height="809.999993" style="fill:#702e3e;fill-opacity:1;stroke:none;"/><path style=" stroke:none;fill-rule:nonzero;fill:#ffffff;fill-opacity:1;" d="M 580.0625 512.710938 L 577.515625 511.691406 L 577.515625 511.4375 Z M 580.0625 512.710938 "/><path style=" stroke:none;fill-rule:nonzero;fill:#ffffff;fill-opacity:1;" d="M 430.761719 225.820312 L 438.664062 225.820312 L 438.664062 216.644531 L 425.925781 216.644531 C 433.324219 213.59375 438.417969 206.195312 438.417969 197.789062 C 438.417969 189.378906 436.636719 188.613281 433.828125 185.054688 C 433.566406 184.546875 433.0625 184.285156 432.816406 184.039062 C 432.554688 183.78125 432.050781 183.273438 431.804688 183.027344 C 430.023438 181.25 427.984375 179.976562 425.4375 178.945312 L 418.808594 15.367188 L 416.523438 15.367188 L 409.894531 178.945312 C 407.609375 179.960938 405.566406 181.234375 403.527344 183.027344 C 403.265625 183.289062 402.757812 183.796875 402.515625 184.039062 C 402.253906 184.546875 401.746094 184.808594 401.503906 185.054688 C 398.695312 188.613281 396.914062 192.957031 396.914062 197.789062 C 396.914062 206.195312 402.007812 213.59375 409.40625 216.644531 L 396.667969 216.644531 L 396.667969 225.820312 L 404.570312 225.820312 C 404.570312 225.820312 392.082031 267.601562 359.722656 290.785156 L 393.863281 280.089844 L 440.734375 280.089844 L 474.875 290.785156 C 442.777344 267.601562 430.023438 225.820312 430.023438 225.820312 L 430.792969 225.820312 Z M 430.761719 225.820312 "/><path style=" stroke:none;fill-rule:nonzero;fill:#ffffff;fill-opacity:1;" d="M 580.574219 512.964844 L 580.316406 512.710938 Z M 580.574219 512.964844 "/><path style=" stroke:none;fill-rule:nonzero;fill:#ffffff;fill-opacity:1;" d="M 547.449219 733.601562 L 547.449219 596.519531 C 546.941406 566.96875 530.371094 562.121094 530.371094 562.121094 C 530.371094 562.121094 505.914062 549.628906 506.417969 578.167969 L 506.417969 733.585938 L 446.792969 733.585938 L 446.792969 580.210938 C 447.300781 548.878906 414.433594 549.125 414.433594 549.125 C 414.433594 549.125 380.292969 547.34375 380.800781 579.949219 L 380.800781 733.585938 L 347.167969 733.585938 L 347.167969 508.863281 L 487.804688 508.863281 L 575.449219 544.03125 L 575.449219 591.425781 L 600.167969 560.847656 L 607.300781 535.882812 L 479.398438 480.339844 L 346.90625 480.339844 L 340.539062 469.382812 L 480.164062 469.382812 C 480.164062 469.382812 583.609375 514.480469 583.609375 514.480469 C 583.105469 506.835938 580.804688 381.21875 474.058594 302.246094 L 446.546875 293.578125 C 446.546875 293.578125 554.828125 357.53125 559.414062 483.636719 L 481.699219 453.058594 C 480.6875 430.378906 476.097656 385.285156 458.253906 340.695312 C 456.980469 337.382812 455.707031 334.066406 454.171875 330.753906 C 448.3125 317.511719 440.929688 304.253906 432.261719 292.027344 L 394.300781 292.027344 L 360.929688 302.476562 C 291.117188 350.378906 265.648438 432.925781 256.210938 480.308594 C 253.15625 496.109375 250.347656 524.128906 250.347656 524.128906 L 225.890625 535.082031 L 233.289062 562.347656 L 254.691406 587.574219 L 254.691406 733.8125 L 187.933594 733.8125 L 205.515625 754.957031 L 627.695312 754.957031 L 645.277344 733.8125 L 547.953125 733.8125 L 547.449219 733.550781 Z M 326.300781 733.601562 L 285.535156 733.601562 L 285.535156 603.65625 C 285.273438 575.117188 303.882812 561.613281 303.882812 561.613281 C 303.882812 561.613281 325.027344 548.878906 326.300781 571.800781 Z M 326.300781 733.601562 "/></g></svg>