<?xml version="1.0" encoding="UTF-8" standalone="no"?>
<svg
   width="612"
   height="612"
   version="1.1"
   id="svg1"
   sodipodi:docname="icon.svg"
   inkscape:version="1.3 (0e150ed6c4, 2023-07-21)"
   xmlns:inkscape="http://www.inkscape.org/namespaces/inkscape"
   xmlns:sodipodi="http://sodipodi.sourceforge.net/DTD/sodipodi-0.dtd"
   xmlns="http://www.w3.org/2000/svg"
   xmlns:svg="http://www.w3.org/2000/svg">
  <sodipodi:namedview
     id="namedview1"
     pagecolor="#ffffff"
     bordercolor="#000000"
     borderopacity="0"
     inkscape:showpageshadow="2"
     inkscape:pageopacity="0.0"
     inkscape:pagecheckerboard="true"
     inkscape:deskcolor="#d1d1d1"
     inkscape:zoom="2.9722222"
     inkscape:cx="305.83178"
     inkscape:cy="306.16823"
     inkscape:window-width="3840"
     inkscape:window-height="2089"
     inkscape:window-x="-8"
     inkscape:window-y="-8"
     inkscape:window-maximized="1"
     inkscape:current-layer="svg1" />
  <!-- Generator: Adobe Illustrator 29.2.1, SVG Export Plug-In . SVG Version: 2.1.0 Build 116)  -->
  <defs
     id="defs1">
    <style
       id="style1">.st0 {&#10;        fill: #702e3e;&#10;      }</style>
  </defs>
  <rect
     style="fill:#550000"
     id="rect1"
     width="608.97192"
     height="601.23364"
     x="2.35514"
     y="5.0467291" />
  <g
     id="svg_31"
     style="fill:#ffffff;fill-opacity:1">
    <g
       id="svg_32"
       style="fill:#ffffff;fill-opacity:1">
      <polygon
         class="st0"
         fill="#660325"
         id="svg_33"
         points="411.66626,318.22342 411.66626,318.06735 413.22681,318.84763 "
         style="fill:#ffffff;fill-opacity:1" />
      <path
         class="st0"
         d="m 321.78,143.13 h 4.84 v -5.62 h -7.8 c 4.53,-1.87 7.65,-6.4 7.65,-11.55 0,-5.15 -1.09,-5.62 -2.81,-7.8 -0.16,-0.31 -0.47,-0.47 -0.62,-0.62 -0.16,-0.16 -0.47,-0.47 -0.62,-0.62 -1.09,-1.09 -2.34,-1.87 -3.9,-2.5 L 314.46,14.23 h -1.4 L 309,114.42 c -1.4,0.62 -2.65,1.4 -3.9,2.5 -0.16,0.16 -0.47,0.47 -0.62,0.62 -0.16,0.31 -0.47,0.47 -0.62,0.62 -1.72,2.18 -2.81,4.84 -2.81,7.8 0,5.15 3.12,9.68 7.65,11.55 h -7.8 v 5.62 h 4.84 c 0,0 -7.65,25.59 -27.47,39.79 l 20.91,-6.55 h 28.71 l 20.91,6.55 c -19.66,-14.2 -27.47,-39.79 -27.47,-39.79 h 0.47 z"
         fill="#660325"
         id="svg_34"
         style="fill:#ffffff;fill-opacity:1" />
      <polygon
         class="st0"
         fill="#660325"
         id="svg_35"
         points="413.38281,318.84763 413.53888,319.00369 "
         style="fill:#ffffff;fill-opacity:1" />
    </g>
    <path
       class="st0"
       d="m 393.25,454.14 v -83.96 c -0.31,-18.1 -10.46,-21.07 -10.46,-21.07 0,0 -14.98,-7.65 -14.67,9.83 v 95.19 H 331.6 v -93.94 c 0.31,-19.19 -19.82,-19.04 -19.82,-19.04 0,0 -20.91,-1.09 -20.6,18.88 v 94.1 h -20.6 V 316.49 h 86.14 l 53.68,21.54 v 29.03 l 15.14,-18.73 4.37,-15.29 -78.34,-34.02 h -81.15 l -3.9,-6.71 h 85.52 c 0,0 63.36,27.62 63.36,27.62 -0.31,-4.68 -1.72,-81.62 -67.1,-129.99 l -16.85,-5.31 c 0,0 66.32,39.17 69.13,116.41 l -47.6,-18.73 c -0.62,-13.89 -3.43,-41.51 -14.36,-68.82 -0.78,-2.03 -1.56,-4.06 -2.5,-6.09 0,0 0,0 0,0 -3.59,-8.11 -8.11,-16.23 -13.42,-23.72 h -23.25 l -20.44,6.4 c -42.76,29.34 -58.36,79.9 -64.14,108.92 -1.87,9.68 -3.59,26.84 -3.59,26.84 l -14.98,6.71 4.53,16.7 13.11,15.45 v 89.57 h -40.89 l 10.77,12.95 H 442.4 l 10.77,-12.95 h -59.61 l -0.31,-0.16 z m -135.45,0 h -24.97 v -79.59 c -0.16,-17.48 11.24,-25.75 11.24,-25.75 0,0 12.95,-7.8 13.73,6.24 v 99.09 z"
       fill="#660325"
       id="svg_36"
       stroke="#000000"
       stroke-width="0"
       style="fill:#ffffff;fill-opacity:1" />
  </g>
  <text
     fill="#660325"
     font-family="Helvetica"
     font-size="63.9813px"
     id="svg_61"
     stroke="#000000"
     stroke-width="0"
     text-anchor="middle"
     x="313.20926"
     xml:space="preserve"
     y="522.13306"
     style="fill:#ffffff;fill-opacity:1" />
  <text
     fill="#660325"
     font-family="Helvetica"
     font-size="86.8227px"
     font-weight="bold"
     id="svg_62"
     stroke="#000000"
     stroke-width="0"
     text-anchor="middle"
     x="316.33051"
     xml:space="preserve"
     y="572.04865"
     style="font-style:normal;font-variant:normal;font-weight:normal;font-stretch:normal;font-size:86.8227px;font-family:Impact;-inkscape-font-specification:Impact;text-anchor:middle;fill:#ffffff;fill-opacity:1;stroke:#000000;stroke-width:0"
     transform="scale(0.98199715,1.0183329)"><tspan
       style="font-style:normal;font-variant:normal;font-weight:normal;font-stretch:normal;font-size:133.333px;font-family:Impact;-inkscape-font-specification:'Impact, Normal';font-variant-ligatures:normal;font-variant-caps:normal;font-variant-numeric:normal;font-variant-east-asian:normal"
       id="tspan1">AmyCalc</tspan></text>
  <g
     inkscape:groupmode="layer"
     id="layer1"
     inkscape:label="Background"
     style="fill:#800000" />
</svg>
