<?xml version="1.0" encoding="UTF-8" standalone="no"?>
<svg
   width="612"
   height="612"
   version="1.1"
   id="svg1"
   sodipodi:docname="icon.svg"
   inkscape:version="1.3 (0e150ed6c4, 2023-07-21)"
   inkscape:export-filename="icon.svg"
   inkscape:export-xdpi="28.235294"
   inkscape:export-ydpi="28.235294"
   xmlns:inkscape="http://www.inkscape.org/namespaces/inkscape"
   xmlns:sodipodi="http://sodipodi.sourceforge.net/DTD/sodipodi-0.dtd"
   xmlns="http://www.w3.org/2000/svg"
   xmlns:svg="http://www.w3.org/2000/svg">
  <sodipodi:namedview
     id="namedview1"
     pagecolor="#ffffff"
     bordercolor="#000000"
     borderopacity="0"
     inkscape:showpageshadow="2"
     inkscape:pageopacity="0.0"
     inkscape:pagecheckerboard="true"
     inkscape:deskcolor="#d1d1d1"
     inkscape:zoom="2.9722222"
     inkscape:cx="306"
     inkscape:cy="306.50468"
     inkscape:window-width="3840"
     inkscape:window-height="2089"
     inkscape:window-x="-8"
     inkscape:window-y="-8"
     inkscape:window-maximized="1"
     inkscape:current-layer="svg_31"
     inkscape:export-bgcolor="#5f2b3700" />
  <!-- Generator: Adobe Illustrator 29.2.1, SVG Export Plug-In . SVG Version: 2.1.0 Build 116)  -->
  <defs
     id="defs1">
    <style
       id="style1">.st0 {&#10;        fill: #702e3e;&#10;      }</style>
  </defs>
  <text
     fill="#660325"
     font-family="Helvetica"
     font-size="63.9813px"
     id="svg_61"
     stroke="#000000"
     stroke-width="0"
     text-anchor="middle"
     x="313.20926"
     xml:space="preserve"
     y="522.13306"
     style="display:none;fill:#ffffff;fill-opacity:1" />
  <g
     inkscape:groupmode="layer"
     id="layer1"
     inkscape:label="Background"
     style="display:none;fill:#800000" />
  <rect
     style="display:none;fill:#5f2b37;fill-opacity:1"
     id="rect1"
     width="609.64484"
     height="608.29907"
     x="1.6822428"
     y="1.6822431" />
  <g
     id="svg_31"
     style="display:inline;fill:#ffffff;fill-opacity:1"
     transform="translate(-2.6915888,0.3364486)">
    <path
       class="st0"
       d="m 324.93689,173.5912 h 8.45702 v -7.89531 h -13.6291 c 7.91536,-2.62709 13.36699,-8.99111 13.36699,-16.22614 0,-7.23504 -1.90457,-7.89532 -4.90995,-10.95792 -0.27959,-0.4355 -0.82126,-0.66028 -1.08337,-0.87101 -0.27955,-0.22478 -0.82124,-0.66028 -1.08333,-0.87102 -1.90458,-1.53129 -4.08873,-2.62707 -6.81454,-3.51214 L 312.14649,-7.4953275 h -2.44625 L 302.60611,133.25766 c -2.44625,0.87102 -4.63041,1.9668 -6.81455,3.51214 -0.27958,0.22479 -0.82124,0.6603 -1.08334,0.87102 -0.27958,0.43551 -0.82123,0.66029 -1.08334,0.87101 -3.00538,3.0626 -4.90996,6.79954 -4.90996,10.95792 0,7.23503 5.45163,13.59905 13.367,16.22614 h -13.62911 v 7.89531 h 8.45703 c 0,0 -13.36701,35.95038 -47.99891,55.89941 l 36.53648,-9.20185 h 50.1656 l 36.53649,9.20185 C 337.79716,209.54158 324.15057,173.5912 324.15057,173.5912 h 0.82125 z"
       fill="#660325"
       id="svg_34-6"
       style="display:inline;fill:#ffffff;fill-opacity:1;stroke-width:1.56676" />
    <path
       class="st0"
       d="M 420.33032,583.34857 V 470.46892 c -0.42634,-24.33447 -14.38535,-28.32747 -14.38535,-28.32747 0,0 -20.60158,-10.28501 -20.17524,13.21589 V 583.33513 H 335.54477 V 457.0379 c 0.42635,-25.79991 -27.25789,-25.59823 -27.25789,-25.59823 0,0 -28.75696,-1.46546 -28.33062,25.38313 V 583.33513 H 251.62565 V 398.28562 h 118.46598 l 73.82462,28.95938 v 39.02925 l 20.82163,-25.18147 6.00993,-20.55657 -107.73884,-45.73806 H 251.4056 l -5.36356,-9.02122 h 117.61331 c 0,0 87.13726,37.13359 87.13726,37.13359 -0.42634,-6.292 -2.36548,-109.73365 -92.28078,-174.76449 l -23.17335,-7.13901 c 0,0 91.20808,52.66194 95.07259,156.50692 L 364.9481,352.33247 c -0.85265,-18.67434 -4.71719,-55.80794 -19.74892,-92.52475 -1.0727,-2.72923 -2.14541,-5.45845 -3.43818,-8.18767 0,0 0,0 0,0 -4.93722,-10.90346 -11.15345,-21.82036 -18.45614,-31.89026 h -31.9751 l -28.11057,8.60446 c -58.80664,39.44603 -80.2609,107.4212 -88.20997,146.43703 -2.57177,13.01423 -4.93723,36.08491 -4.93723,36.08491 l -20.60158,9.02124 6.22998,22.45224 18.02982,20.77169 v 120.422 h -56.23489 l 14.81168,17.41057 h 355.61797 l 14.81168,-17.41057 h -81.98 l -0.42633,-0.21512 z m -186.28065,0 H 199.70911 V 476.34415 c -0.22004,-23.50092 15.45806,-34.61948 15.45806,-34.61948 0,0 17.80978,-10.48668 18.8825,8.38933 v 133.22113 z"
       fill="#660325"
       id="svg_36-9"
       stroke="#000000"
       stroke-width="0"
       style="display:inline;fill:#ffffff;fill-opacity:1" />
    <g
       id="svg_32"
       style="display:inline;fill:#ffffff;fill-opacity:1">
      <polygon
         class="st0"
         fill="#660325"
         id="svg_33"
         points="411.66626,318.22342 411.66626,318.06735 413.22681,318.84763 "
         style="fill:#ffffff;fill-opacity:1" />
      <path
         class="st0"
         d="m 321.43463,172.14676 h 6.29589 v -7.31052 h -10.14628 c 5.89265,-2.43251 9.95116,-8.32515 9.95116,-15.0243 0,-6.69915 -1.41788,-7.31053 -3.65526,-10.14628 -0.20813,-0.40325 -0.61138,-0.61138 -0.8065,-0.8065 -0.20813,-0.20813 -0.61138,-0.61138 -0.8065,-0.8065 -1.41788,-1.41788 -3.04388,-2.4325 -5.07314,-3.25201 L 311.91273,4.4729906 h -1.82112 L 304.81034,134.80065 c -1.82113,0.8065 -3.44714,1.82113 -5.07314,3.25201 -0.20813,0.20813 -0.61138,0.61138 -0.8065,0.8065 -0.20813,0.40325 -0.61138,0.61138 -0.8065,0.8065 -2.23738,2.83575 -3.65526,6.2959 -3.65526,10.14628 0,6.69915 4.05851,12.59179 9.95116,15.0243 h -10.14628 v 7.31052 h 6.29589 c 0,0 -9.95116,33.2876 -35.73311,51.75904 l 27.19983,-8.52028 h 37.34612 l 27.19983,8.52028 c -25.57383,-18.47144 -35.73312,-51.75904 -35.73312,-51.75904 h 0.61138 z"
         fill="#660325"
         id="svg_34"
         style="fill:#5f2b37;fill-opacity:1;stroke-width:1.30081" />
      <polygon
         class="st0"
         fill="#660325"
         id="svg_35"
         points="413.53888,319.00369 413.38281,318.84763 "
         style="fill:#ffffff;fill-opacity:1" />
    </g>
    <path
       class="st0"
       d="M 414.40316,576.71014 V 467.49455 c -0.40325,-23.54457 -13.60642,-27.40796 -13.60642,-27.40796 0,0 -19.48606,-9.95116 -19.08281,12.78691 v 123.82363 h -47.5054 V 454.49951 c 0.40325,-24.96245 -25.78195,-24.76733 -25.78195,-24.76733 0,0 -27.19984,-1.41788 -26.79659,24.5592 v 122.40575 h -26.79658 v -179.0428 h 112.05135 l 69.82721,28.01934 v 37.76237 l 19.69419,-24.36408 5.68452,-19.88931 -101.90507,-44.25339 H 254.62528 l -5.07314,-8.7284 h 111.24485 c 0,0 82.41901,35.92824 82.41901,35.92824 -0.40325,-6.08777 -2.23739,-106.17171 -87.28402,-169.09165 l -21.91857,-6.90728 c 0,0 86.26939,50.95254 89.92466,151.42672 l -61.91833,-24.36408 c -0.80649,-18.06818 -4.46176,-53.99642 -18.67956,-89.5214 -1.01462,-2.64064 -2.02925,-5.28127 -3.25201,-7.92191 0,0 0,0 0,0 -4.66989,-10.54953 -10.54953,-21.11206 -17.4568,-30.85509 h -30.24372 l -26.58846,8.32515 c -55.62242,38.16562 -75.91498,103.93432 -83.43363,141.68369 -2.43251,12.59179 -4.66989,34.9136 -4.66989,34.9136 l -19.48606,8.72841 5.89264,21.72344 17.05356,20.09744 v 116.51311 h -53.18992 l 14.00967,16.84542 h 336.36217 l 14.00967,-16.84542 h -77.54099 l -0.40325,-0.20813 z m -176.19404,0 h -32.4811 V 473.17907 c -0.20813,-22.73807 14.62105,-33.49573 14.62105,-33.49573 0,0 16.84542,-10.14628 17.86005,8.11702 v 128.89677 z"
       fill="#660325"
       id="svg_36"
       stroke="#000000"
       stroke-width="0"
       style="display:inline;fill:#5f2b37;fill-opacity:1" />
  </g>
  <text
     fill="#660325"
     font-family="Helvetica"
     font-size="86.8227px"
     font-weight="bold"
     id="svg_62"
     stroke="#000000"
     stroke-width="0"
     text-anchor="middle"
     x="316.33051"
     xml:space="preserve"
     y="572.04865"
     style="font-style:normal;font-variant:normal;font-weight:normal;font-stretch:normal;font-size:86.8227px;font-family:Impact;-inkscape-font-specification:Impact;text-anchor:middle;display:none;fill:#ffffff;fill-opacity:1;stroke:#000000;stroke-width:0"
     transform="scale(0.98199715,1.0183329)"><tspan
       style="font-style:normal;font-variant:normal;font-weight:normal;font-stretch:normal;font-size:133.333px;font-family:Impact;-inkscape-font-specification:'Impact, Normal';font-variant-ligatures:normal;font-variant-caps:normal;font-variant-numeric:normal;font-variant-east-asian:normal"
       id="tspan1">AmyCalc</tspan></text>
</svg>
