<svg xmlns="http://www.w3.org/2000/svg" xmlns:xlink="http://www.w3.org/1999/xlink" width="1080" zoomAndPan="magnify" viewBox="0 0 810 809.999993" height="1080" preserveAspectRatio="xMidYMid meet" version="1.2"><defs/><g id="4c94cf88db"><rect x="0" width="810" y="0" height="809.999993" style="fill:#ffffff;fill-opacity:1;stroke:none;"/><rect x="0" width="810" y="0" height="809.999993" style="fill:#702e3e;fill-opacity:1;stroke:none;"/><path style=" stroke:none;fill-rule:nonzero;fill:#ffffff;fill-opacity:1;" d="M 549.648438 403.402344 L 547.671875 402.613281 L 547.671875 402.414062 Z M 549.648438 403.402344 "/><path style=" stroke:none;fill-rule:nonzero;fill:#ffffff;fill-opacity:1;" d="M 433.949219 181.085938 L 440.074219 181.085938 L 440.074219 173.976562 L 430.207031 173.976562 C 435.9375 171.609375 439.882812 165.878906 439.882812 159.363281 C 439.882812 152.847656 438.503906 152.253906 436.328125 149.496094 C 436.125 149.101562 435.734375 148.898438 435.546875 148.710938 C 435.34375 148.507812 434.949219 148.113281 434.761719 147.925781 C 433.382812 146.546875 431.800781 145.558594 429.828125 144.761719 L 424.691406 18.003906 L 422.917969 18.003906 L 417.78125 144.761719 C 416.011719 145.546875 414.429688 146.535156 412.847656 147.925781 C 412.644531 148.128906 412.253906 148.519531 412.0625 148.710938 C 411.859375 149.101562 411.46875 149.304688 411.277344 149.496094 C 409.101562 152.253906 407.722656 155.617188 407.722656 159.363281 C 407.722656 165.878906 411.671875 171.609375 417.402344 173.976562 L 407.535156 173.976562 L 407.535156 181.085938 L 413.65625 181.085938 C 413.65625 181.085938 403.980469 213.460938 378.902344 231.425781 L 405.359375 223.140625 L 441.679688 223.140625 L 468.136719 231.425781 C 443.261719 213.460938 433.382812 181.085938 433.382812 181.085938 L 433.976562 181.085938 Z M 433.949219 181.085938 "/><path style=" stroke:none;fill-rule:nonzero;fill:#ffffff;fill-opacity:1;" d="M 550.042969 403.597656 L 549.84375 403.402344 Z M 550.042969 403.597656 "/><path style=" stroke:none;fill-rule:nonzero;fill:#ffffff;fill-opacity:1;" d="M 524.375 574.570312 L 524.375 468.347656 C 523.980469 445.445312 511.140625 441.6875 511.140625 441.6875 C 511.140625 441.6875 492.1875 432.011719 492.578125 454.125 L 492.578125 574.558594 L 446.375 574.558594 L 446.375 455.707031 C 446.765625 431.429688 421.300781 431.617188 421.300781 431.617188 C 421.300781 431.617188 394.84375 430.238281 395.234375 455.503906 L 395.234375 574.558594 L 369.171875 574.558594 L 369.171875 400.417969 L 478.15625 400.417969 L 546.070312 427.671875 L 546.070312 464.398438 L 565.226562 440.703125 L 570.753906 421.355469 L 471.640625 378.316406 L 368.972656 378.316406 L 364.035156 369.824219 L 472.234375 369.824219 C 472.234375 369.824219 552.398438 404.769531 552.398438 404.769531 C 552.003906 398.847656 550.222656 301.507812 467.503906 240.308594 L 446.183594 233.589844 C 446.183594 233.589844 530.09375 283.148438 533.648438 380.871094 L 473.425781 357.175781 C 472.640625 339.601562 469.085938 304.65625 455.257812 270.105469 C 454.269531 267.535156 453.28125 264.96875 452.09375 262.398438 C 447.550781 252.136719 441.832031 241.867188 435.113281 232.390625 L 405.699219 232.390625 L 379.839844 240.484375 C 325.738281 277.605469 306.003906 341.574219 298.691406 378.289062 C 296.324219 390.535156 294.148438 412.246094 294.148438 412.246094 L 275.195312 420.738281 L 280.925781 441.867188 L 297.511719 461.414062 L 297.511719 574.734375 L 245.78125 574.734375 L 259.40625 591.121094 L 586.558594 591.121094 L 600.183594 574.734375 L 524.765625 574.734375 L 524.375 574.53125 Z M 353.003906 574.570312 L 321.414062 574.570312 L 321.414062 473.875 C 321.210938 451.757812 335.632812 441.296875 335.632812 441.296875 C 335.632812 441.296875 352.015625 431.429688 353.003906 449.191406 Z M 353.003906 574.570312 "/><g style="fill:#ffffff;fill-opacity:1;"><g transform="translate(140.807809, 671.648122)"><path style="stroke:none" d="M 35.109375 0.90625 C 29.546875 0.90625 24.59375 -0.363281 20.25 -2.90625 C 15.90625 -5.457031 12.5 -9.1875 10.03125 -14.09375 C 7.570312 -19.007812 6.34375 -24.898438 6.34375 -31.765625 C 6.34375 -38.628906 7.570312 -44.515625 10.03125 -49.421875 C 12.5 -54.335938 15.90625 -58.070312 20.25 -60.625 C 24.59375 -63.175781 29.546875 -64.453125 35.109375 -64.453125 C 41.046875 -64.453125 45.984375 -63.328125 49.921875 -61.078125 C 53.867188 -58.835938 56.710938 -55.457031 58.453125 -50.9375 L 53.671875 -47.765625 L 52.578125 -47.765625 C 50.835938 -51.378906 48.578125 -53.945312 45.796875 -55.46875 C 43.015625 -56.988281 39.453125 -57.75 35.109375 -57.75 C 31.109375 -57.75 27.554688 -56.859375 24.453125 -55.078125 C 21.359375 -53.296875 18.898438 -50.472656 17.078125 -46.609375 C 15.253906 -42.742188 14.34375 -37.796875 14.34375 -31.765625 C 14.34375 -25.742188 15.253906 -20.804688 17.078125 -16.953125 C 18.898438 -13.097656 21.359375 -10.28125 24.453125 -8.5 C 27.554688 -6.71875 31.109375 -5.828125 35.109375 -5.828125 C 39.710938 -5.828125 43.476562 -6.859375 46.40625 -8.921875 C 49.332031 -10.992188 51.507812 -14.347656 52.9375 -18.984375 L 54.015625 -18.984375 L 59.015625 -16.515625 C 57.503906 -10.890625 54.710938 -6.578125 50.640625 -3.578125 C 46.578125 -0.585938 41.398438 0.90625 35.109375 0.90625 Z M 35.109375 0.90625 "/></g></g><g style="fill:#ffffff;fill-opacity:1;"><g transform="translate(202.380991, 671.648122)"><path style="stroke:none" d="M 34.859375 0.90625 C 29.347656 0.90625 24.445312 -0.28125 20.15625 -2.65625 C 15.875 -5.03125 12.5 -8.65625 10.03125 -13.53125 C 7.570312 -18.414062 6.34375 -24.492188 6.34375 -31.765625 C 6.34375 -39.035156 7.570312 -45.109375 10.03125 -49.984375 C 12.5 -54.867188 15.875 -58.5 20.15625 -60.875 C 24.445312 -63.257812 29.347656 -64.453125 34.859375 -64.453125 C 40.359375 -64.453125 45.25 -63.257812 49.53125 -60.875 C 53.820312 -58.5 57.195312 -54.867188 59.65625 -49.984375 C 62.125 -45.109375 63.359375 -39.035156 63.359375 -31.765625 C 63.359375 -24.492188 62.125 -18.414062 59.65625 -13.53125 C 57.195312 -8.65625 53.820312 -5.03125 49.53125 -2.65625 C 45.25 -0.28125 40.359375 0.90625 34.859375 0.90625 Z M 34.859375 -6 C 41.460938 -6 46.53125 -8.0625 50.0625 -12.1875 C 53.59375 -16.3125 55.359375 -22.835938 55.359375 -31.765625 C 55.359375 -40.691406 53.59375 -47.21875 50.0625 -51.34375 C 46.53125 -55.46875 41.460938 -57.53125 34.859375 -57.53125 C 21.179688 -57.53125 14.34375 -48.941406 14.34375 -31.765625 C 14.34375 -14.585938 21.179688 -6 34.859375 -6 Z M 34.859375 -6 "/></g></g><g style="fill:#ffffff;fill-opacity:1;"><g transform="translate(272.079947, 671.648122)"><path style="stroke:none" d="M 17.078125 -63.53125 L 17.078125 -6.171875 L 47.671875 -6.171875 L 47.671875 0 L 9.609375 0 L 9.609375 -63.53125 Z M 17.078125 -63.53125 "/></g></g><g style="fill:#ffffff;fill-opacity:1;"><g transform="translate(322.442223, 671.648122)"><path style="stroke:none" d="M 17.078125 -63.53125 L 17.078125 -6.171875 L 47.671875 -6.171875 L 47.671875 0 L 9.609375 0 L 9.609375 -63.53125 Z M 17.078125 -63.53125 "/></g></g><g style="fill:#ffffff;fill-opacity:1;"><g transform="translate(372.804487, 671.648122)"><path style="stroke:none" d="M 17.078125 -29.9375 L 17.078125 -6.171875 L 49.453125 -6.171875 L 49.453125 0 L 9.609375 0 L 9.609375 -63.53125 L 48.765625 -63.53125 L 48.765625 -57.359375 L 17.078125 -57.359375 L 17.078125 -36.109375 L 45.015625 -36.109375 L 45.015625 -29.9375 Z M 17.078125 -29.9375 "/></g></g><g style="fill:#ffffff;fill-opacity:1;"><g transform="translate(425.556666, 671.648122)"><path style="stroke:none" d="M 33.421875 0.90625 C 28.085938 0.90625 23.382812 -0.304688 19.3125 -2.734375 C 15.25 -5.171875 12.070312 -8.835938 9.78125 -13.734375 C 7.488281 -18.628906 6.34375 -24.640625 6.34375 -31.765625 C 6.34375 -38.890625 7.566406 -44.898438 10.015625 -49.796875 C 12.460938 -54.691406 15.859375 -58.359375 20.203125 -60.796875 C 24.546875 -63.234375 29.5625 -64.453125 35.25 -64.453125 C 41.332031 -64.453125 46.328125 -63.359375 50.234375 -61.171875 C 54.148438 -58.984375 56.914062 -55.710938 58.53125 -51.359375 L 53.671875 -48.5 L 52.578125 -48.5 C 50.929688 -51.800781 48.703125 -54.164062 45.890625 -55.59375 C 43.078125 -57.03125 39.53125 -57.75 35.25 -57.75 C 21.3125 -57.75 14.34375 -49.085938 14.34375 -31.765625 C 14.34375 -22.753906 16.09375 -16.175781 19.59375 -12.03125 C 23.101562 -7.894531 28.015625 -5.828125 34.328125 -5.828125 C 40.117188 -5.828125 44.457031 -7.144531 47.34375 -9.78125 C 50.226562 -12.414062 51.671875 -16.570312 51.671875 -22.25 L 51.671875 -27.859375 L 33.59375 -27.859375 L 33.59375 -33.859375 L 58.921875 -33.859375 L 58.921875 0 L 52.015625 0 L 52.015625 -8.515625 L 51.109375 -8.734375 C 49.421875 -5.460938 47.078125 -3.035156 44.078125 -1.453125 C 41.085938 0.117188 37.535156 0.90625 33.421875 0.90625 Z M 33.421875 0.90625 "/></g></g><g style="fill:#ffffff;fill-opacity:1;"><g transform="translate(491.605553, 671.648122)"><path style="stroke:none" d="M 17.078125 -29.9375 L 17.078125 -6.171875 L 49.453125 -6.171875 L 49.453125 0 L 9.609375 0 L 9.609375 -63.53125 L 48.765625 -63.53125 L 48.765625 -57.359375 L 17.078125 -57.359375 L 17.078125 -36.109375 L 45.015625 -36.109375 L 45.015625 -29.9375 Z M 17.078125 -29.9375 "/></g></g><g style="fill:#ffffff;fill-opacity:1;"><g transform="translate(545.270284, 671.648122)"><path style="stroke:none" d=""/></g></g><g style="fill:#ffffff;fill-opacity:1;"><g transform="translate(567.083775, 671.648122)"><path style="stroke:none" d="M 34.859375 0.90625 C 29.347656 0.90625 24.445312 -0.28125 20.15625 -2.65625 C 15.875 -5.03125 12.5 -8.65625 10.03125 -13.53125 C 7.570312 -18.414062 6.34375 -24.492188 6.34375 -31.765625 C 6.34375 -39.035156 7.570312 -45.109375 10.03125 -49.984375 C 12.5 -54.867188 15.875 -58.5 20.15625 -60.875 C 24.445312 -63.257812 29.347656 -64.453125 34.859375 -64.453125 C 40.359375 -64.453125 45.25 -63.257812 49.53125 -60.875 C 53.820312 -58.5 57.195312 -54.867188 59.65625 -49.984375 C 62.125 -45.109375 63.359375 -39.035156 63.359375 -31.765625 C 63.359375 -24.492188 62.125 -18.414062 59.65625 -13.53125 C 57.195312 -8.65625 53.820312 -5.03125 49.53125 -2.65625 C 45.25 -0.28125 40.359375 0.90625 34.859375 0.90625 Z M 34.859375 -6 C 41.460938 -6 46.53125 -8.0625 50.0625 -12.1875 C 53.59375 -16.3125 55.359375 -22.835938 55.359375 -31.765625 C 55.359375 -40.691406 53.59375 -47.21875 50.0625 -51.34375 C 46.53125 -55.46875 41.460938 -57.53125 34.859375 -57.53125 C 21.179688 -57.53125 14.34375 -48.941406 14.34375 -31.765625 C 14.34375 -14.585938 21.179688 -6 34.859375 -6 Z M 34.859375 -6 "/></g></g><g style="fill:#ffffff;fill-opacity:1;"><g transform="translate(636.782731, 671.648122)"><path style="stroke:none" d="M 46.9375 -63.53125 L 46.9375 -57.359375 L 17.078125 -57.359375 L 17.078125 -34.25 L 43.9375 -34.25 L 43.9375 -28.03125 L 17.078125 -28.03125 L 17.078125 0 L 9.609375 0 L 9.609375 -63.53125 Z M 46.9375 -63.53125 "/></g></g><g style="fill:#ffffff;fill-opacity:1;"><g transform="translate(140.510929, 762.52287)"><path style="stroke:none" d="M 10.109375 0 L 10.109375 -77.796875 L 43.3125 -77.796875 C 48.101562 -77.796875 52.15625 -77.039062 55.46875 -75.53125 C 58.789062 -74.03125 61.300781 -71.882812 63 -69.09375 C 64.707031 -66.3125 65.5625 -63.023438 65.5625 -59.234375 C 65.5625 -55.785156 64.726562 -52.75 63.0625 -50.125 C 61.394531 -47.5 59 -45.390625 55.875 -43.796875 L 55.875 -42.671875 C 60.769531 -41.398438 64.546875 -39.078125 67.203125 -35.703125 C 69.867188 -32.335938 71.203125 -28.207031 71.203125 -23.3125 C 71.203125 -15.863281 68.957031 -10.113281 64.46875 -6.0625 C 59.976562 -2.019531 53.316406 0 44.484375 0 Z M 40.125 -46.78125 C 47.289062 -46.78125 50.875 -50.007812 50.875 -56.46875 C 50.875 -59.757812 49.984375 -62.210938 48.203125 -63.828125 C 46.429688 -65.441406 43.738281 -66.25 40.125 -66.25 L 25.484375 -66.25 L 25.484375 -46.78125 Z M 42.9375 -12.1875 C 51.414062 -12.1875 55.65625 -16.035156 55.65625 -23.734375 C 55.65625 -31.460938 51.414062 -35.328125 42.9375 -35.328125 L 25.484375 -35.328125 L 25.484375 -12.1875 Z M 42.9375 -12.1875 "/></g></g><g style="fill:#ffffff;fill-opacity:1;"><g transform="translate(216.608413, 762.52287)"><path style="stroke:none" d="M 41.234375 1.125 C 30.523438 1.125 22.578125 -1.421875 17.390625 -6.515625 C 12.210938 -11.609375 9.625 -19.15625 9.625 -29.15625 L 9.625 -77.796875 L 24.6875 -77.796875 L 24.6875 -29.265625 C 24.6875 -23.585938 26.050781 -19.328125 28.78125 -16.484375 C 31.519531 -13.648438 35.671875 -12.234375 41.234375 -12.234375 C 52.273438 -12.234375 57.796875 -17.910156 57.796875 -29.265625 L 57.796875 -77.796875 L 72.84375 -77.796875 L 72.84375 -29.15625 C 72.84375 -19.15625 70.253906 -11.609375 65.078125 -6.515625 C 59.898438 -1.421875 51.953125 1.125 41.234375 1.125 Z M 41.234375 1.125 "/></g></g><g style="fill:#ffffff;fill-opacity:1;"><g transform="translate(299.091701, 762.52287)"><path style="stroke:none" d="M 34.484375 1.125 C 29.085938 1.125 24.285156 0.457031 20.078125 -0.875 C 15.878906 -2.207031 12.378906 -3.953125 9.578125 -6.109375 C 6.773438 -8.273438 4.628906 -10.65625 3.140625 -13.25 L 11.59375 -23.578125 L 12.9375 -23.578125 C 15.269531 -20.097656 18.238281 -17.328125 21.84375 -15.265625 C 25.445312 -13.210938 29.660156 -12.1875 34.484375 -12.1875 C 38.597656 -12.1875 41.703125 -13.054688 43.796875 -14.796875 C 45.890625 -16.535156 46.9375 -18.929688 46.9375 -21.984375 C 46.9375 -23.828125 46.597656 -25.367188 45.921875 -26.609375 C 45.242188 -27.847656 44.125 -28.910156 42.5625 -29.796875 C 41.007812 -30.679688 38.898438 -31.445312 36.234375 -32.09375 L 26.234375 -34.375 C 19.242188 -35.96875 14.035156 -38.617188 10.609375 -42.328125 C 7.191406 -46.035156 5.484375 -50.851562 5.484375 -56.78125 C 5.484375 -61.175781 6.582031 -65.039062 8.78125 -68.375 C 10.976562 -71.71875 14.175781 -74.3125 18.375 -76.15625 C 22.582031 -78 27.613281 -78.921875 33.46875 -78.921875 C 39.46875 -78.921875 44.601562 -78.128906 48.875 -76.546875 C 53.15625 -74.972656 56.765625 -72.550781 59.703125 -69.28125 L 52.09375 -58.859375 L 50.765625 -58.859375 C 48.566406 -61.160156 46.046875 -62.890625 43.203125 -64.046875 C 40.367188 -65.203125 37.125 -65.78125 33.46875 -65.78125 C 29.25 -65.78125 26.039062 -65.03125 23.84375 -63.53125 C 21.644531 -62.039062 20.546875 -59.984375 20.546875 -57.359375 C 20.546875 -54.910156 21.316406 -52.957031 22.859375 -51.5 C 24.398438 -50.050781 27.066406 -48.921875 30.859375 -48.109375 L 41.078125 -45.984375 C 48.640625 -44.378906 54.125 -41.671875 57.53125 -37.859375 C 60.9375 -34.046875 62.640625 -29.070312 62.640625 -22.9375 C 62.640625 -18.070312 61.59375 -13.835938 59.5 -10.234375 C 57.40625 -6.640625 54.242188 -3.847656 50.015625 -1.859375 C 45.796875 0.128906 40.617188 1.125 34.484375 1.125 Z M 34.484375 1.125 "/></g></g><g style="fill:#ffffff;fill-opacity:1;"><g transform="translate(365.929771, 762.52287)"><path style="stroke:none" d="M 25.484375 0 L 10.109375 0 L 10.109375 -77.796875 L 25.484375 -77.796875 Z M 25.484375 0 "/></g></g><g style="fill:#ffffff;fill-opacity:1;"><g transform="translate(401.583837, 762.52287)"><path style="stroke:none" d="M 25.015625 0 L 10.109375 0 L 10.109375 -77.796875 L 27.71875 -77.796875 L 58.96875 -27.671875 L 60.34375 -27.890625 L 60.34375 -77.796875 L 75.140625 -77.796875 L 75.140625 0 L 59.390625 0 L 26.34375 -53.53125 L 25.015625 -53.328125 Z M 25.015625 0 "/></g></g><g style="fill:#ffffff;fill-opacity:1;"><g transform="translate(486.887521, 762.52287)"><path style="stroke:none" d="M 25.484375 -34.15625 L 25.484375 -12.875 L 62.640625 -12.875 L 62.640625 0 L 10.109375 0 L 10.109375 -77.796875 L 61.78125 -77.796875 L 61.78125 -64.921875 L 25.484375 -64.921875 L 25.484375 -46.71875 L 57.203125 -46.71875 L 57.203125 -34.15625 Z M 25.484375 -34.15625 "/></g></g><g style="fill:#ffffff;fill-opacity:1;"><g transform="translate(553.778807, 762.52287)"><path style="stroke:none" d="M 34.484375 1.125 C 29.085938 1.125 24.285156 0.457031 20.078125 -0.875 C 15.878906 -2.207031 12.378906 -3.953125 9.578125 -6.109375 C 6.773438 -8.273438 4.628906 -10.65625 3.140625 -13.25 L 11.59375 -23.578125 L 12.9375 -23.578125 C 15.269531 -20.097656 18.238281 -17.328125 21.84375 -15.265625 C 25.445312 -13.210938 29.660156 -12.1875 34.484375 -12.1875 C 38.597656 -12.1875 41.703125 -13.054688 43.796875 -14.796875 C 45.890625 -16.535156 46.9375 -18.929688 46.9375 -21.984375 C 46.9375 -23.828125 46.597656 -25.367188 45.921875 -26.609375 C 45.242188 -27.847656 44.125 -28.910156 42.5625 -29.796875 C 41.007812 -30.679688 38.898438 -31.445312 36.234375 -32.09375 L 26.234375 -34.375 C 19.242188 -35.96875 14.035156 -38.617188 10.609375 -42.328125 C 7.191406 -46.035156 5.484375 -50.851562 5.484375 -56.78125 C 5.484375 -61.175781 6.582031 -65.039062 8.78125 -68.375 C 10.976562 -71.71875 14.175781 -74.3125 18.375 -76.15625 C 22.582031 -78 27.613281 -78.921875 33.46875 -78.921875 C 39.46875 -78.921875 44.601562 -78.128906 48.875 -76.546875 C 53.15625 -74.972656 56.765625 -72.550781 59.703125 -69.28125 L 52.09375 -58.859375 L 50.765625 -58.859375 C 48.566406 -61.160156 46.046875 -62.890625 43.203125 -64.046875 C 40.367188 -65.203125 37.125 -65.78125 33.46875 -65.78125 C 29.25 -65.78125 26.039062 -65.03125 23.84375 -63.53125 C 21.644531 -62.039062 20.546875 -59.984375 20.546875 -57.359375 C 20.546875 -54.910156 21.316406 -52.957031 22.859375 -51.5 C 24.398438 -50.050781 27.066406 -48.921875 30.859375 -48.109375 L 41.078125 -45.984375 C 48.640625 -44.378906 54.125 -41.671875 57.53125 -37.859375 C 60.9375 -34.046875 62.640625 -29.070312 62.640625 -22.9375 C 62.640625 -18.070312 61.59375 -13.835938 59.5 -10.234375 C 57.40625 -6.640625 54.242188 -3.847656 50.015625 -1.859375 C 45.796875 0.128906 40.617188 1.125 34.484375 1.125 Z M 34.484375 1.125 "/></g></g><g style="fill:#ffffff;fill-opacity:1;"><g transform="translate(620.616877, 762.52287)"><path style="stroke:none" d="M 34.484375 1.125 C 29.085938 1.125 24.285156 0.457031 20.078125 -0.875 C 15.878906 -2.207031 12.378906 -3.953125 9.578125 -6.109375 C 6.773438 -8.273438 4.628906 -10.65625 3.140625 -13.25 L 11.59375 -23.578125 L 12.9375 -23.578125 C 15.269531 -20.097656 18.238281 -17.328125 21.84375 -15.265625 C 25.445312 -13.210938 29.660156 -12.1875 34.484375 -12.1875 C 38.597656 -12.1875 41.703125 -13.054688 43.796875 -14.796875 C 45.890625 -16.535156 46.9375 -18.929688 46.9375 -21.984375 C 46.9375 -23.828125 46.597656 -25.367188 45.921875 -26.609375 C 45.242188 -27.847656 44.125 -28.910156 42.5625 -29.796875 C 41.007812 -30.679688 38.898438 -31.445312 36.234375 -32.09375 L 26.234375 -34.375 C 19.242188 -35.96875 14.035156 -38.617188 10.609375 -42.328125 C 7.191406 -46.035156 5.484375 -50.851562 5.484375 -56.78125 C 5.484375 -61.175781 6.582031 -65.039062 8.78125 -68.375 C 10.976562 -71.71875 14.175781 -74.3125 18.375 -76.15625 C 22.582031 -78 27.613281 -78.921875 33.46875 -78.921875 C 39.46875 -78.921875 44.601562 -78.128906 48.875 -76.546875 C 53.15625 -74.972656 56.765625 -72.550781 59.703125 -69.28125 L 52.09375 -58.859375 L 50.765625 -58.859375 C 48.566406 -61.160156 46.046875 -62.890625 43.203125 -64.046875 C 40.367188 -65.203125 37.125 -65.78125 33.46875 -65.78125 C 29.25 -65.78125 26.039062 -65.03125 23.84375 -63.53125 C 21.644531 -62.039062 20.546875 -59.984375 20.546875 -57.359375 C 20.546875 -54.910156 21.316406 -52.957031 22.859375 -51.5 C 24.398438 -50.050781 27.066406 -48.921875 30.859375 -48.109375 L 41.078125 -45.984375 C 48.640625 -44.378906 54.125 -41.671875 57.53125 -37.859375 C 60.9375 -34.046875 62.640625 -29.070312 62.640625 -22.9375 C 62.640625 -18.070312 61.59375 -13.835938 59.5 -10.234375 C 57.40625 -6.640625 54.242188 -3.847656 50.015625 -1.859375 C 45.796875 0.128906 40.617188 1.125 34.484375 1.125 Z M 34.484375 1.125 "/></g></g></g></svg>